Source: Dead.Mans.Shoes.2004.720p.BluRay.x264-CiNEFiLE

Subs: Danish, Dutch, English, French, Greek, Persian, Polish, Servian and Spanish.

Sample and Screens included.
 
http://www.imdb.com/title/tt0419677/

General
Complete name                    : Dead Mans Shoes-720p MP4 AAC x264 BRRip 2004-CC.mp4
Format                           : MPEG-4
Format profile                   : Base Media
Codec ID                         : isom
File size                        : 1.88 GiB
Duration                         : 1h 26mn
Overall bit rate                 : 3 110 Kbps
Encoded date                     : UTC 2012-06-01 10:12:05

Video
ID                               : 1
Format                           : AVC
Format/Info                      : Advanced Video Codec
Format profile                   : High@L3.1
Format settings, CABAC           : Yes
Format settings, ReFrames        : 5 frames
Codec ID                         : avc1
Codec ID/Info                    : Advanced Video Coding
Duration                         : 1h 26mn
Bit rate mode                    : Variable
Bit rate                         : 2 732 Kbps
Nominal bit rate                 : 2 785 Kbps
Maximum bit rate                 : 45.5 Mbps
Width                            : 1 264 pixels
Height                           : 720 pixels
Display aspect ratio             : 16:9
Frame rate mode                  : Variable
Frame rate                       : 25.000 fps
Minimum frame rate               : 16.667 fps
Maximum frame rate               : 25.000 fps
Resolution                       : 24 bits
Colorimetry                      : 4:2:0
Scan type                        : Progressive
Bits/(Pixel*Frame)               : 0.120
Stream size                      : 1.65 GiB (88%)
Writing library                  : x264 core 112

Audio
ID                               : 2
Format                           : AAC
Format/Info                      : Advanced Audio Codec
Format version                   : Version 4
Format profile                   : LC
Format settings, SBR             : No
Codec ID                         : 40
Duration                         : 1h 26mn
Bit rate mode                    : Variable
Bit rate                         : 376 Kbps
Maximum bit rate                 : 639 Kbps
Channel(s)                       : 6 channels
Channel positions                : Front: L C R, Rear: L R, LFE
Sampling rate                    : 48.0 KHz
Resolution                       : 16 bits
Stream size                      : 232 MiB (12%)
Language                         : English

Enjoy...

Requested by DreamExtractor.